<svg width="251" height="68" viewBox="0 0 251 68" fill="none" xmlns="http://www.w3.org/2000/svg">
<path d="M9.17539 62.3755L11.7145 49.6174H6.74032L7.09414 47.8067H19.1446L18.77 49.6174H13.7958L11.2358 62.3755H9.17539ZM28.7166 54.0921H36.2091L35.8553 55.8612H28.3627L28.7166 54.0921ZM27.5927 60.5648H36.105L35.7512 62.3755H25.1576L28.0714 47.8067H38.3528L37.9989 49.6174H29.778L27.5927 60.5648ZM52.8579 62.542C51.3872 62.542 50.1315 62.2853 49.0909 61.7719C48.0641 61.2585 47.2733 60.544 46.7183 59.6282C46.1771 58.6986 45.9066 57.6233 45.9066 56.4023C45.9066 55.1952 46.1147 54.0644 46.5309 53.0099C46.9472 51.9415 47.5438 51.0049 48.3208 50.2002C49.1117 49.3954 50.0483 48.771 51.1305 48.327C52.2266 47.8692 53.4615 47.6402 54.8351 47.6402C56.0423 47.6402 57.1106 47.8345 58.0403 48.223C58.9699 48.6115 59.6845 49.1734 60.184 49.9088L58.6855 51.1992C58.2553 50.6442 57.7073 50.221 57.0413 49.9296C56.3753 49.6382 55.5913 49.4925 54.6895 49.4925C53.6488 49.4925 52.7123 49.6729 51.8798 50.0337C51.0611 50.3805 50.3604 50.8731 49.7777 51.5114C49.1949 52.1357 48.7509 52.8572 48.4457 53.6759C48.1404 54.4945 47.9878 55.3617 47.9878 56.2774C47.9878 57.1515 48.1751 57.9216 48.5498 58.5876C48.9383 59.2397 49.5002 59.7531 50.2356 60.1277C50.9848 60.5024 51.9075 60.6897 53.0036 60.6897C53.8916 60.6897 54.7033 60.544 55.4387 60.2526C56.188 59.9612 56.847 59.5311 57.4159 58.9622L58.623 60.3359C57.957 61.0712 57.1245 61.6262 56.1255 62.0009C55.1265 62.3616 54.0373 62.542 52.8579 62.542ZM80.802 47.8067H82.8833L79.9695 62.3755H77.8883L80.802 47.8067ZM69.5216 62.3755H67.4404L70.3541 47.8067H72.4354L69.5216 62.3755ZM79.3868 55.882H70.6455L70.9993 54.0713H79.7406L79.3868 55.882ZM90.9902 62.3755L93.904 47.8067H95.6106L102.604 59.8364L101.979 59.7531L104.352 47.8067H106.433L103.519 62.3755H101.813L94.8197 50.3458L95.4441 50.4291L93.0715 62.3755H90.9902ZM121.554 62.542C120.111 62.542 118.876 62.2853 117.849 61.7719C116.823 61.2585 116.039 60.544 115.497 59.6282C114.97 58.6986 114.707 57.6233 114.707 56.4023C114.707 55.1952 114.915 54.0644 115.331 53.0099C115.747 51.9415 116.344 51.0049 117.121 50.2002C117.898 49.3954 118.827 48.771 119.91 48.327C120.992 47.8692 122.206 47.6402 123.552 47.6402C125.009 47.6402 126.251 47.8969 127.277 48.4103C128.304 48.9237 129.081 49.6452 129.608 50.5748C130.149 51.4905 130.42 52.5589 130.42 53.7799C130.42 54.987 130.212 56.1248 129.796 57.1932C129.379 58.2477 128.783 59.1773 128.006 59.982C127.229 60.7868 126.292 61.4181 125.196 61.876C124.114 62.32 122.9 62.542 121.554 62.542ZM121.741 60.6897C122.74 60.6897 123.649 60.5162 124.468 60.1694C125.286 59.8086 125.98 59.316 126.549 58.6917C127.118 58.0534 127.555 57.325 127.86 56.5064C128.165 55.6877 128.318 54.8205 128.318 53.9048C128.318 53.0307 128.131 52.2675 127.756 51.6154C127.381 50.9494 126.826 50.4291 126.091 50.0545C125.356 49.6798 124.454 49.4925 123.385 49.4925C122.373 49.4925 121.457 49.6729 120.638 50.0337C119.833 50.3805 119.14 50.8731 118.557 51.5114C117.988 52.1357 117.551 52.8572 117.246 53.6759C116.94 54.4945 116.788 55.3617 116.788 56.2774C116.788 57.1515 116.975 57.9216 117.35 58.5876C117.738 59.2397 118.293 59.7531 119.015 60.1277C119.75 60.5024 120.659 60.6897 121.741 60.6897ZM138.679 62.3755L141.593 47.8067H143.674L141.114 60.5648H149.023L148.669 62.3755H138.679ZM164.446 62.542C163.003 62.542 161.769 62.2853 160.742 61.7719C159.715 61.2585 158.931 60.544 158.39 59.6282C157.863 58.6986 157.599 57.6233 157.599 56.4023C157.599 55.1952 157.807 54.0644 158.223 53.0099C158.64 51.9415 159.236 51.0049 160.013 50.2002C160.79 49.3954 161.72 48.771 162.802 48.327C163.884 47.8692 165.099 47.6402 166.444 47.6402C167.901 47.6402 169.143 47.8969 170.17 48.4103C171.197 48.9237 171.974 49.6452 172.501 50.5748C173.042 51.4905 173.313 52.5589 173.313 53.7799C173.313 54.987 173.104 56.1248 172.688 57.1932C172.272 58.2477 171.675 59.1773 170.898 59.982C170.121 60.7868 169.185 61.4181 168.089 61.876C167.006 62.32 165.792 62.542 164.446 62.542ZM164.634 60.6897C165.633 60.6897 166.542 60.5162 167.36 60.1694C168.179 59.8086 168.873 59.316 169.441 58.6917C170.01 58.0534 170.447 57.325 170.753 56.5064C171.058 55.6877 171.21 54.8205 171.21 53.9048C171.21 53.0307 171.023 52.2675 170.649 51.6154C170.274 50.9494 169.719 50.4291 168.984 50.0545C168.248 49.6798 167.346 49.4925 166.278 49.4925C165.265 49.4925 164.349 49.6729 163.531 50.0337C162.726 50.3805 162.032 50.8731 161.449 51.5114C160.881 52.1357 160.443 52.8572 160.138 53.6759C159.833 54.4945 159.68 55.3617 159.68 56.2774C159.68 57.1515 159.868 57.9216 160.242 58.5876C160.631 59.2397 161.186 59.7531 161.907 60.1277C162.643 60.5024 163.551 60.6897 164.634 60.6897ZM188.69 62.542C187.247 62.542 186.005 62.2853 184.964 61.7719C183.938 61.2585 183.14 60.544 182.571 59.6282C182.016 58.6986 181.738 57.6233 181.738 56.4023C181.738 55.1952 181.947 54.0644 182.363 53.0099C182.779 51.9415 183.376 51.0049 184.153 50.2002C184.944 49.3954 185.887 48.771 186.983 48.327C188.093 47.8692 189.335 47.6402 190.709 47.6402C191.985 47.6402 193.095 47.8345 194.039 48.223C194.996 48.6115 195.759 49.1665 196.328 49.888L194.829 51.1575C194.344 50.5887 193.747 50.1724 193.04 49.9088C192.346 49.6313 191.541 49.4925 190.625 49.4925C189.585 49.4925 188.648 49.6729 187.816 50.0337C186.983 50.3805 186.269 50.8662 185.672 51.4905C185.075 52.101 184.617 52.8225 184.298 53.655C183.979 54.4737 183.82 55.3478 183.82 56.2774C183.82 57.1515 184.007 57.9216 184.382 58.5876C184.77 59.2397 185.339 59.7531 186.088 60.1277C186.851 60.5024 187.795 60.6897 188.919 60.6897C189.737 60.6897 190.494 60.5509 191.187 60.2734C191.895 59.9959 192.561 59.5935 193.185 59.0663L193.997 60.7313C193.289 61.3002 192.471 61.7442 191.541 62.0633C190.625 62.3824 189.675 62.542 188.69 62.542ZM192.082 60.4191L193.144 55.0079H195.142L193.997 60.7313L192.082 60.4191ZM204.309 62.3755L207.222 47.8067H209.304L206.39 62.3755H204.309ZM220.971 54.0921H228.463L228.109 55.8612H220.617L220.971 54.0921ZM219.847 60.5648H228.359L228.005 62.3755H217.412L220.325 47.8067H230.607L230.253 49.6174H222.032L219.847 60.5648ZM242.51 62.542C241.775 62.542 241.053 62.4657 240.345 62.3131C239.652 62.1466 239.013 61.9315 238.431 61.6679C237.862 61.4042 237.404 61.1059 237.057 60.7729L237.973 59.1079C238.347 59.4409 238.785 59.7323 239.284 59.982C239.797 60.2318 240.339 60.426 240.907 60.5648C241.49 60.7035 242.087 60.7729 242.697 60.7729C243.474 60.7729 244.161 60.6758 244.758 60.4815C245.354 60.2873 245.812 60.0098 246.131 59.649C246.464 59.2744 246.631 58.8235 246.631 58.2962C246.631 57.8661 246.492 57.5123 246.215 57.2348C245.937 56.9573 245.576 56.7353 245.132 56.5688C244.702 56.3884 244.217 56.2289 243.675 56.0901C243.148 55.9375 242.614 55.771 242.073 55.5906C241.546 55.3964 241.06 55.1605 240.616 54.883C240.186 54.6055 239.832 54.2517 239.555 53.8215C239.291 53.3775 239.159 52.8225 239.159 52.1565C239.159 51.2269 239.416 50.4291 239.929 49.7631C240.443 49.0832 241.15 48.5629 242.052 48.2022C242.968 47.8275 244.022 47.6402 245.216 47.6402C246.117 47.6402 246.978 47.7443 247.796 47.9524C248.615 48.1605 249.316 48.4658 249.898 48.8682L249.066 50.5748C248.525 50.1863 247.914 49.8949 247.234 49.7007C246.555 49.5064 245.847 49.4093 245.112 49.4093C244.321 49.4093 243.634 49.5133 243.051 49.7215C242.468 49.9296 242.017 50.2279 241.698 50.6164C241.379 50.991 241.213 51.435 241.199 51.9484C241.199 52.3924 241.331 52.7532 241.594 53.0307C241.858 53.3082 242.212 53.5371 242.656 53.7175C243.1 53.8979 243.585 54.0713 244.113 54.2378C244.654 54.3904 245.188 54.5569 245.715 54.7373C246.242 54.9038 246.728 55.1258 247.172 55.4033C247.63 55.6669 247.991 56.0069 248.254 56.4231C248.532 56.8394 248.67 57.3666 248.67 58.0049C248.67 58.9345 248.407 59.7462 247.88 60.4399C247.366 61.1198 246.645 61.6401 245.715 62.0009C244.799 62.3616 243.731 62.542 242.51 62.542Z" fill="black"/>
<path d="M53.0467 16.0966H62.4401V21.0188H52.0623L53.0467 16.0966ZM50.1382 33.0113H44.3213L50.5857 1.68771H73.4508L72.4664 6.56525H55.4183L50.1382 33.0113Z" fill="#9370DB"/>
<path d="M89.4761 33.4588C86.314 33.4588 83.6144 32.892 81.3771 31.7584C79.1398 30.6248 77.4245 29.0586 76.2313 27.0598C75.0679 25.0312 74.4862 22.7044 74.4862 20.0791C74.4862 17.4241 74.9337 14.963 75.8286 12.6957C76.7235 10.3987 78.0211 8.39991 79.7215 6.69949C81.4218 4.99907 83.4503 3.67154 85.8069 2.71692C88.1635 1.73246 90.7886 1.24023 93.6822 1.24023C96.8144 1.24023 99.4991 1.80704 101.736 2.94066C103.974 4.07427 105.689 5.65537 106.882 7.68395C108.075 9.68269 108.672 11.9947 108.672 14.6199C108.672 17.2749 108.21 19.751 107.285 22.0481C106.39 24.3153 105.092 26.2991 103.392 27.9995C101.692 29.7 99.6632 31.0424 97.3066 32.0269C94.9798 32.9815 92.3696 33.4588 89.4761 33.4588ZM89.9683 28.3575C91.9371 28.3575 93.712 28.0145 95.293 27.3283C96.874 26.6123 98.2164 25.6428 99.3202 24.4197C100.454 23.1668 101.319 21.7348 101.915 20.1239C102.512 18.4831 102.81 16.7678 102.81 14.9779C102.81 13.2774 102.437 11.7709 101.692 10.4583C100.946 9.14571 99.8571 8.13143 98.4252 7.41546C96.9934 6.69949 95.2334 6.34151 93.1452 6.34151C91.2062 6.34151 89.4313 6.69949 87.8205 7.41546C86.2395 8.10159 84.8822 9.07113 83.7486 10.3241C82.6449 11.5472 81.7947 12.9791 81.1981 14.6199C80.6313 16.2308 80.3479 17.9312 80.3479 19.7212C80.3479 21.4216 80.7059 22.9281 81.4218 24.2407C82.1676 25.5533 83.2564 26.5676 84.6883 27.2836C86.1201 27.9995 87.8801 28.3575 89.9683 28.3575Z" fill="#9370DB"/>
<path d="M111.794 33.0113L118.059 1.68771H130.229C134.018 1.68771 136.941 2.52301 139 4.1936C141.088 5.83436 142.132 8.14634 142.132 11.1295C142.132 13.7548 141.52 16.022 140.297 17.9312C139.104 19.8107 137.389 21.2724 135.151 22.3165C132.914 23.3308 130.259 23.838 127.187 23.838H116.985L119.983 21.1978L117.656 33.0113H111.794ZM132.377 33.0113L125.979 21.6453H132.153L138.552 33.0113H132.377ZM119.848 21.8691L117.88 19.0499H127.366C130.2 19.0499 132.392 18.4235 133.943 17.1705C135.494 15.9176 136.27 14.0829 136.27 11.6665C136.27 9.96609 135.688 8.69823 134.525 7.86294C133.391 7.02764 131.751 6.60999 129.603 6.60999H120.475L123.518 3.70137L119.848 21.8691Z" fill="#9370DB"/>
<path d="M153.874 33.0113L159.154 6.60999H148.773L149.758 1.68771H176.292L175.307 6.60999H164.926L159.691 33.0113H153.874Z" fill="#9370DB"/>
<path d="M207.192 1.68771H212.964L206.699 33.0113H200.927L207.192 1.68771ZM187.312 19.5869L181.589 19.4829L185.177 1.68771H190.994L187.312 19.5869ZM204.059 19.5869H187.312L187.951 14.6199H205.089L204.059 19.5869Z" fill="#9370DB"/>
<path d="M177.673 33.1151C177.746 31.8435 178.174 30.1246 178.671 28.9927C179.168 27.8608 179.855 26.8675 180.686 26.08C181.516 25.2925 182.471 24.7293 183.486 24.4286C184.5 24.1278 185.55 24.0966 186.565 24.337L185.029 33.0563L177.673 33.1151Z" fill="#9370DB"/>
<path fill-rule="evenodd" clip-rule="evenodd" d="M9.40469 9.82299L4.95605 32.0672H19.5879C22.5113 32.0672 25.1663 31.6347 27.5527 30.7696C29.9392 29.8746 31.9826 28.6366 33.6829 27.0555C35.4131 25.4445 36.7405 23.5055 37.6653 21.2382C38.6199 18.971 39.0971 16.4502 39.0971 13.6758C39.0971 11.0506 38.4856 8.76846 37.2626 6.82938C36.0693 4.8903 34.3392 3.3987 32.072 2.35458C29.8049 1.28063 27.0754 0.743652 23.8836 0.743652H11.2205L10.2372 5.66039H23.9412V5.67732C25.8463 5.74189 27.4529 6.08116 28.7609 6.69514C30.2524 7.38127 31.371 8.35081 32.1168 9.60376C32.8626 10.8567 33.2354 12.3334 33.2354 14.0338C33.2354 16.5397 32.6985 18.7771 31.6246 20.746C30.5507 22.7149 28.9995 24.2811 26.971 25.4445C24.9724 26.5782 22.571 27.145 19.7669 27.145H11.7574L15.2217 9.82299H9.40469Z" fill="#9370DB"/>
<path d="M2.0812 0.745117L21.8526 0.745117V5.63618H0L2.0812 0.745117Z" fill="#9370DB"/>
</svg>
