<svg width="246" height="68" viewBox="0 0 246 68" fill="none" xmlns="http://www.w3.org/2000/svg">
<path d="M8.82 62.5283L11.26 50.2683H6.48L6.82 48.5283H18.4L18.04 50.2683H13.26L10.8 62.5283H8.82ZM27.5983 54.5683H34.7983L34.4583 56.2683H27.2583L27.5983 54.5683ZM26.5183 60.7883H34.6983L34.3583 62.5283H24.1783L26.9783 48.5283H36.8583L36.5183 50.2683H28.6183L26.5183 60.7883ZM50.7972 62.6883C49.3839 62.6883 48.1772 62.4417 47.1772 61.9483C46.1905 61.455 45.4305 60.7683 44.8972 59.8883C44.3772 58.995 44.1172 57.9617 44.1172 56.7883C44.1172 55.6283 44.3172 54.5417 44.7172 53.5283C45.1172 52.5017 45.6905 51.6017 46.4372 50.8283C47.1972 50.055 48.0972 49.455 49.1372 49.0283C50.1905 48.5883 51.3772 48.3683 52.6972 48.3683C53.8572 48.3683 54.8839 48.555 55.7772 48.9283C56.6705 49.3017 57.3572 49.8417 57.8372 50.5483L56.3972 51.7883C55.9839 51.255 55.4572 50.8483 54.8172 50.5683C54.1772 50.2883 53.4239 50.1483 52.5572 50.1483C51.5572 50.1483 50.6572 50.3217 49.8572 50.6683C49.0705 51.0017 48.3972 51.475 47.8372 52.0883C47.2772 52.6883 46.8505 53.3817 46.5572 54.1683C46.2639 54.955 46.1172 55.7883 46.1172 56.6683C46.1172 57.5083 46.2972 58.2483 46.6572 58.8883C47.0305 59.515 47.5705 60.0083 48.2772 60.3683C48.9972 60.7283 49.8839 60.9083 50.9372 60.9083C51.7905 60.9083 52.5705 60.7683 53.2772 60.4883C53.9972 60.2083 54.6305 59.795 55.1772 59.2483L56.3372 60.5683C55.6972 61.275 54.8972 61.8083 53.9372 62.1683C52.9772 62.515 51.9305 62.6883 50.7972 62.6883ZM77.6503 48.5283H79.6503L76.8503 62.5283H74.8503L77.6503 48.5283ZM66.8103 62.5283H64.8103L67.6103 48.5283H69.6103L66.8103 62.5283ZM76.2903 56.2883H67.8903L68.2303 54.5483H76.6303L76.2903 56.2883ZM87.4408 62.5283L90.2408 48.5283H91.8808L98.6008 60.0883L98.0008 60.0083L100.281 48.5283H102.281L99.4808 62.5283H97.8408L91.1208 50.9683L91.7208 51.0483L89.4408 62.5283H87.4408ZM116.811 62.6883C115.425 62.6883 114.238 62.4417 113.251 61.9483C112.265 61.455 111.511 60.7683 110.991 59.8883C110.485 58.995 110.231 57.9617 110.231 56.7883C110.231 55.6283 110.431 54.5417 110.831 53.5283C111.231 52.5017 111.805 51.6017 112.551 50.8283C113.298 50.055 114.191 49.455 115.231 49.0283C116.271 48.5883 117.438 48.3683 118.731 48.3683C120.131 48.3683 121.325 48.615 122.311 49.1083C123.298 49.6017 124.045 50.295 124.551 51.1883C125.071 52.0683 125.331 53.095 125.331 54.2683C125.331 55.4283 125.131 56.5217 124.731 57.5483C124.331 58.5617 123.758 59.455 123.011 60.2283C122.265 61.0017 121.365 61.6083 120.311 62.0483C119.271 62.475 118.105 62.6883 116.811 62.6883ZM116.991 60.9083C117.951 60.9083 118.825 60.7417 119.611 60.4083C120.398 60.0617 121.065 59.5883 121.611 58.9883C122.158 58.375 122.578 57.675 122.871 56.8883C123.165 56.1017 123.311 55.2683 123.311 54.3883C123.311 53.5483 123.131 52.815 122.771 52.1883C122.411 51.5483 121.878 51.0483 121.171 50.6883C120.465 50.3283 119.598 50.1483 118.571 50.1483C117.598 50.1483 116.718 50.3217 115.931 50.6683C115.158 51.0017 114.491 51.475 113.931 52.0883C113.385 52.6883 112.965 53.3817 112.671 54.1683C112.378 54.955 112.231 55.7883 112.231 56.6683C112.231 57.5083 112.411 58.2483 112.771 58.8883C113.145 59.515 113.678 60.0083 114.371 60.3683C115.078 60.7283 115.951 60.9083 116.991 60.9083ZM133.268 62.5283L136.068 48.5283H138.068L135.608 60.7883H143.208L142.868 62.5283H133.268ZM158.029 62.6883C156.643 62.6883 155.456 62.4417 154.469 61.9483C153.483 61.455 152.729 60.7683 152.209 59.8883C151.703 58.995 151.449 57.9617 151.449 56.7883C151.449 55.6283 151.649 54.5417 152.049 53.5283C152.449 52.5017 153.023 51.6017 153.769 50.8283C154.516 50.055 155.409 49.455 156.449 49.0283C157.489 48.5883 158.656 48.3683 159.949 48.3683C161.349 48.3683 162.543 48.615 163.529 49.1083C164.516 49.6017 165.263 50.295 165.769 51.1883C166.289 52.0683 166.549 53.095 166.549 54.2683C166.549 55.4283 166.349 56.5217 165.949 57.5483C165.549 58.5617 164.976 59.455 164.229 60.2283C163.483 61.0017 162.583 61.6083 161.529 62.0483C160.489 62.475 159.323 62.6883 158.029 62.6883ZM158.209 60.9083C159.169 60.9083 160.043 60.7417 160.829 60.4083C161.616 60.0617 162.283 59.5883 162.829 58.9883C163.376 58.375 163.796 57.675 164.089 56.8883C164.383 56.1017 164.529 55.2683 164.529 54.3883C164.529 53.5483 164.349 52.815 163.989 52.1883C163.629 51.5483 163.096 51.0483 162.389 50.6883C161.683 50.3283 160.816 50.1483 159.789 50.1483C158.816 50.1483 157.936 50.3217 157.149 50.6683C156.376 51.0017 155.709 51.475 155.149 52.0883C154.603 52.6883 154.183 53.3817 153.889 54.1683C153.596 54.955 153.449 55.7883 153.449 56.6683C153.449 57.5083 153.629 58.2483 153.989 58.8883C154.363 59.515 154.896 60.0083 155.589 60.3683C156.296 60.7283 157.169 60.9083 158.209 60.9083ZM181.326 62.6883C179.939 62.6883 178.746 62.4417 177.746 61.9483C176.759 61.455 175.993 60.7683 175.446 59.8883C174.913 58.995 174.646 57.9617 174.646 56.7883C174.646 55.6283 174.846 54.5417 175.246 53.5283C175.646 52.5017 176.219 51.6017 176.966 50.8283C177.726 50.055 178.633 49.455 179.686 49.0283C180.753 48.5883 181.946 48.3683 183.266 48.3683C184.493 48.3683 185.559 48.555 186.466 48.9283C187.386 49.3017 188.119 49.835 188.666 50.5283L187.226 51.7483C186.759 51.2017 186.186 50.8017 185.506 50.5483C184.839 50.2817 184.066 50.1483 183.186 50.1483C182.186 50.1483 181.286 50.3217 180.486 50.6683C179.686 51.0017 178.999 51.4683 178.426 52.0683C177.853 52.655 177.413 53.3483 177.106 54.1483C176.799 54.935 176.646 55.775 176.646 56.6683C176.646 57.5083 176.826 58.2483 177.186 58.8883C177.559 59.515 178.106 60.0083 178.826 60.3683C179.559 60.7283 180.466 60.9083 181.546 60.9083C182.333 60.9083 183.059 60.775 183.726 60.5083C184.406 60.2417 185.046 59.855 185.646 59.3483L186.426 60.9483C185.746 61.495 184.959 61.9217 184.066 62.2283C183.186 62.535 182.273 62.6883 181.326 62.6883ZM184.586 60.6483L185.606 55.4483H187.526L186.426 60.9483L184.586 60.6483ZM196.335 62.5283L199.135 48.5283H201.135L198.335 62.5283H196.335ZM212.347 54.5683H219.547L219.207 56.2683H212.007L212.347 54.5683ZM211.267 60.7883H219.447L219.107 62.5283H208.927L211.727 48.5283H221.607L221.267 50.2683H213.367L211.267 60.7883ZM233.045 62.6883C232.338 62.6883 231.645 62.615 230.965 62.4683C230.298 62.3083 229.685 62.1017 229.125 61.8483C228.578 61.595 228.138 61.3083 227.805 60.9883L228.685 59.3883C229.045 59.7083 229.465 59.9883 229.945 60.2283C230.438 60.4683 230.958 60.655 231.505 60.7883C232.065 60.9217 232.638 60.9883 233.225 60.9883C233.972 60.9883 234.632 60.895 235.205 60.7083C235.778 60.5217 236.218 60.255 236.525 59.9083C236.845 59.5483 237.005 59.115 237.005 58.6083C237.005 58.195 236.872 57.855 236.605 57.5883C236.338 57.3217 235.992 57.1083 235.565 56.9483C235.152 56.775 234.685 56.6217 234.165 56.4883C233.658 56.3417 233.145 56.1817 232.625 56.0083C232.118 55.8217 231.652 55.595 231.225 55.3283C230.812 55.0617 230.472 54.7217 230.205 54.3083C229.952 53.8817 229.825 53.3483 229.825 52.7083C229.825 51.815 230.072 51.0483 230.565 50.4083C231.058 49.755 231.738 49.255 232.605 48.9083C233.485 48.5483 234.498 48.3683 235.645 48.3683C236.512 48.3683 237.338 48.4683 238.125 48.6683C238.912 48.8683 239.585 49.1617 240.145 49.5483L239.345 51.1883C238.825 50.815 238.238 50.535 237.585 50.3483C236.932 50.1617 236.252 50.0683 235.545 50.0683C234.785 50.0683 234.125 50.1683 233.565 50.3683C233.005 50.5683 232.572 50.855 232.265 51.2283C231.958 51.5883 231.798 52.015 231.785 52.5083C231.785 52.935 231.912 53.2817 232.165 53.5483C232.418 53.815 232.758 54.035 233.185 54.2083C233.612 54.3817 234.078 54.5483 234.585 54.7083C235.105 54.855 235.618 55.015 236.125 55.1883C236.632 55.3483 237.098 55.5617 237.525 55.8283C237.965 56.0817 238.312 56.4083 238.565 56.8083C238.832 57.2083 238.965 57.715 238.965 58.3283C238.965 59.2217 238.712 60.0017 238.205 60.6683C237.712 61.3217 237.018 61.8217 236.125 62.1683C235.245 62.515 234.218 62.6883 233.045 62.6883Z" fill="white"/>
<path d="M50.9729 18.274H59.9998V23.004H50.0269L50.9729 18.274ZM48.1779 34.528H42.5879L48.6079 4.42805H70.5809L69.6349 9.11505H53.2519L48.1779 34.528Z" fill="white"/>
<path d="M85.9809 34.958C82.9422 34.958 80.3479 34.4134 78.1979 33.324C76.0479 32.2347 74.3995 30.7297 73.2529 28.809C72.1349 26.8597 71.5759 24.6237 71.5759 22.101C71.5759 19.5497 72.0059 17.1847 72.8659 15.006C73.7259 12.7987 74.9729 10.878 76.6069 9.24405C78.2409 7.61005 80.1902 6.33438 82.4549 5.41705C84.7195 4.47105 87.2422 3.99805 90.0229 3.99805C93.0329 3.99805 95.6129 4.54271 97.7629 5.63205C99.9129 6.72138 101.561 8.24071 102.708 10.19C103.855 12.1107 104.428 14.3324 104.428 16.855C104.428 19.4064 103.984 21.7857 103.095 23.993C102.235 26.1717 100.988 28.078 99.3539 29.712C97.7199 31.346 95.7705 32.636 93.5059 33.582C91.2699 34.4994 88.7615 34.958 85.9809 34.958ZM86.4539 30.056C88.3459 30.056 90.0515 29.7264 91.5709 29.067C93.0902 28.379 94.3802 27.4474 95.4409 26.272C96.5302 25.068 97.3615 23.692 97.9349 22.144C98.5082 20.5674 98.7949 18.919 98.7949 17.199C98.7949 15.565 98.4365 14.1174 97.7199 12.856C97.0032 11.5947 95.9569 10.62 94.5809 9.93205C93.2049 9.24405 91.5135 8.90005 89.5069 8.90005C87.6435 8.90005 85.9379 9.24405 84.3899 9.93205C82.8705 10.5914 81.5662 11.523 80.4769 12.727C79.4162 13.9024 78.5992 15.2784 78.0259 16.855C77.4812 18.403 77.2089 20.037 77.2089 21.757C77.2089 23.391 77.5529 24.8387 78.2409 26.1C78.9575 27.3614 80.0039 28.336 81.3799 29.024C82.7559 29.712 84.4472 30.056 86.4539 30.056Z" fill="white"/>
<path d="M107.428 34.528L113.448 4.42805H125.144C128.785 4.42805 131.594 5.23071 133.572 6.83605C135.579 8.41271 136.582 10.6344 136.582 13.501C136.582 16.0237 135.994 18.2024 134.819 20.037C133.672 21.843 132.024 23.2477 129.874 24.251C127.724 25.2257 125.173 25.713 122.22 25.713H112.416L115.297 23.176L113.061 34.528H107.428ZM127.208 34.528L121.059 23.606H126.993L133.142 34.528H127.208ZM115.168 23.821L113.276 21.112H122.392C125.115 21.112 127.222 20.51 128.713 19.306C130.204 18.102 130.949 16.339 130.949 14.017C130.949 12.383 130.39 11.1647 129.272 10.362C128.183 9.55938 126.606 9.15805 124.542 9.15805H115.77L118.694 6.36305L115.168 23.821Z" fill="white"/>
<path d="M147.866 34.528L152.94 9.15805H142.964L143.91 4.42805H169.409L168.463 9.15805H158.487L153.456 34.528H147.866Z" fill="white"/>
<path d="M199.104 4.42805H204.651L198.631 34.528H193.084L199.104 4.42805ZM180 21.628L174.5 21.5281L177.948 4.42805H183.538L180 21.628ZM196.094 21.628H180L180.614 16.855H197.083L196.094 21.628Z" fill="white"/>
<path d="M170.738 34.6286C170.808 33.4066 171.22 31.7548 171.697 30.6672C172.175 29.5795 172.835 28.625 173.634 27.8683C174.432 27.1115 175.35 26.5703 176.324 26.2813C177.299 25.9923 178.308 25.9623 179.283 26.1933L177.807 34.572L170.738 34.6286Z" fill="white"/>
<path fill-rule="evenodd" clip-rule="evenodd" d="M9.0387 12.2483L4.7627 33.6283H18.8237C21.633 33.6283 24.1844 33.2127 26.4777 32.3813C28.771 31.5213 30.7347 30.3317 32.3687 28.8123C34.0314 27.2643 35.307 25.401 36.1957 23.2223C37.113 21.0437 37.5717 18.6213 37.5717 15.9553C37.5717 13.4327 36.984 11.2397 35.8087 9.37632C34.662 7.51299 32.9994 6.07965 30.8207 5.07632C28.642 4.04432 26.019 3.52832 22.9517 3.52832H10.7827L9.8387 8.2483H23V8.26902C24.8339 8.33047 26.3801 8.65657 27.6387 9.24732C29.072 9.90665 30.147 10.8383 30.8637 12.0423C31.5804 13.2463 31.9387 14.6653 31.9387 16.2993C31.9387 18.7073 31.4227 20.8573 30.3907 22.7493C29.3587 24.6413 27.868 26.1463 25.9187 27.2643C23.998 28.3537 21.6904 28.8983 18.9957 28.8983H11.2987L14.6287 12.2483H9.0387Z" fill="white"/>
<path d="M2 3.52832L21 3.52832V8.22832H0L2 3.52832Z" fill="white"/>
<path d="M234.254 17.7563L217.975 1.47742C217.182 0.685128 215.898 0.685128 215.105 1.47742C214.312 2.26991 214.312 3.55492 215.105 4.34751L221.825 11.0674H208.9C208.227 11.0674 207.682 11.6126 207.682 12.285C207.682 12.9575 208.227 13.5027 208.9 13.5027H224.26L227.919 16.8832H206.156H184.029C182.909 16.8832 182 18.0707 182 19.1914C182 20.3121 182.909 21.5501 184.029 21.5501L227.919 21.2208L224.26 24.8802H215.105C214.432 24.8802 213.887 25.4254 213.887 26.0978C213.887 26.7703 214.432 27.3155 215.105 27.3155H221.825L215.105 34.0356C214.312 34.8281 214.312 36.1131 215.105 36.9057C215.501 37.3019 216.02 37.5 216.54 37.5C217.059 37.5 217.578 37.3019 217.975 36.9057L234.254 20.6264C235.046 19.834 235.046 18.5489 234.254 17.7563Z" fill="white"/>
<path d="M245.406 17.8732L232.35 4.81688C231.558 4.02458 230.273 4.02458 229.48 4.81688C228.688 5.60936 228.688 6.89438 229.48 7.68696L241.102 19.3083L229.48 30.9298C228.688 31.7223 228.688 33.0073 229.48 33.7999C229.877 34.196 230.396 34.3942 230.915 34.3942C231.435 34.3942 231.954 34.196 232.35 33.7999L245.406 20.7433C246.199 19.9508 246.199 18.6658 245.406 17.8732Z" fill="#EA4EE3"/>
</svg>
