<svg width="150" height="46" viewBox="0 0 150 46" fill="none" xmlns="http://www.w3.org/2000/svg">
<g id="dforth-logo 1" clip-path="url(#clip0_1_5179)">
<path id="Vector" d="M99.4341 14.3238C100.91 14.3238 102.149 14.6231 103.155 15.2216C104.181 15.8203 104.907 16.7074 105.335 17.8833C105.762 19.0377 105.806 20.4593 105.463 22.1482L103.571 31.6402H99.5625L101.422 22.2444C101.701 20.8548 101.572 19.7752 101.038 19.0056C100.504 18.2147 99.5308 17.8191 98.1195 17.8191C96.6447 17.8191 95.426 18.2253 94.464 19.0377C93.5019 19.85 92.85 21.09 92.5082 22.7575L90.7125 31.6402H86.7036L91.4495 7.84619H95.4584L93.1493 19.3904L92.3156 17.8512C93.1277 16.6327 94.1438 15.7454 95.3618 15.1896C96.6022 14.6124 97.9594 14.3238 99.4341 14.3238Z" fill="black"/>
<path id="Vector_2" d="M79.526 31.8652C78.4147 31.8652 77.4526 31.6301 76.6399 31.1597C75.8495 30.6681 75.2719 29.984 74.9084 29.1074C74.5666 28.2096 74.5132 27.1513 74.7483 25.9327L77.7945 10.7329H81.8034L78.7565 25.9007C78.6281 26.6917 78.7139 27.3331 79.0132 27.8248C79.3125 28.3164 79.8793 28.5623 80.713 28.5623C81.0974 28.5623 81.4825 28.5088 81.8668 28.402C82.2736 28.2737 82.637 28.1027 82.9572 27.8889L83.6632 30.839C83.0647 31.2238 82.4019 31.4911 81.675 31.6407C80.9481 31.7904 80.232 31.8652 79.526 31.8652ZM73.5938 17.8519L74.2349 14.6451H85.619L84.9779 17.8519H73.5938Z" fill="black"/>
<path id="Vector_3" d="M59.1772 31.6391L62.5763 14.5152H66.3924L65.4304 19.3894L65.0776 17.9784C65.8686 16.5888 66.8734 15.6376 68.0919 15.1245C69.3105 14.59 70.7963 14.3228 72.5495 14.3228L71.8117 18.1388C71.6407 18.096 71.4804 18.0746 71.3307 18.0746C71.1811 18.0533 71.0101 18.0426 70.8177 18.0426C69.257 18.0426 67.9636 18.4594 66.9375 19.2932C65.9114 20.1055 65.2273 21.4097 64.8852 23.2054L63.1856 31.6391H59.1772Z" fill="black"/>
<path id="Vector_4" d="M46.9744 31.8636C45.3069 31.8636 43.8425 31.5536 42.5812 30.9336C41.3413 30.2923 40.3792 29.4158 39.6951 28.3041C39.011 27.171 38.6689 25.8456 38.6689 24.3278C38.6689 22.4037 39.1072 20.6935 39.9838 19.197C40.8602 17.6791 42.0574 16.4926 43.5752 15.6376C45.1145 14.761 46.8675 14.3228 48.8343 14.3228C50.5232 14.3228 51.9876 14.6328 53.2275 15.2528C54.4888 15.8513 55.4615 16.7171 56.1457 17.8502C56.8298 18.9619 57.1718 20.2873 57.1718 21.8265C57.1718 23.7292 56.7336 25.4394 55.8571 26.9573C54.9805 28.4751 53.7726 29.6723 52.2334 30.5488C50.7156 31.4253 48.9626 31.8636 46.9744 31.8636ZM47.2309 28.4323C48.3853 28.4323 49.4008 28.1652 50.2774 27.6307C51.1538 27.0748 51.8486 26.316 52.3617 25.354C52.8748 24.3919 53.1313 23.2802 53.1313 22.0189C53.1313 20.6935 52.7358 19.646 51.9448 18.8763C51.1539 18.1067 50.0422 17.7219 48.6098 17.7219C47.4768 17.7219 46.4613 17.9998 45.5635 18.5556C44.6869 19.0901 43.9921 19.8384 43.479 20.8004C42.966 21.7624 42.7094 22.8741 42.7094 24.1353C42.7094 25.4822 43.105 26.5404 43.8959 27.31C44.6869 28.0583 45.7986 28.4323 47.2309 28.4323Z" fill="black"/>
<path id="Vector_5" d="M27.4353 31.64L31.091 13.4257C31.4545 11.63 32.2134 10.219 33.3678 9.19283C34.5223 8.14536 36.0615 7.62158 37.9855 7.62158C38.7124 7.62158 39.4071 7.70704 40.0699 7.8781C40.7326 8.04915 41.2884 8.30567 41.7374 8.64771L40.102 11.5659C39.5248 11.0955 38.8193 10.8604 37.9855 10.8604C37.1517 10.8604 36.4891 11.0955 35.9973 11.5659C35.5056 12.0361 35.1529 12.7523 34.9391 13.7143L34.5223 15.6384L34.3299 17.2738L31.4438 31.64H27.4353ZM27.4033 17.851L28.0446 14.6443H39.4286L38.7872 17.851H27.4033Z" fill="black"/>
<path id="Vector_6" d="M0.657227 31.6409L5.14665 9.19385H14.2217C16.5091 9.19385 18.4653 9.57866 20.09 10.3483C21.7147 11.0965 22.9547 12.1654 23.8098 13.555C24.6863 14.9445 25.1246 16.58 25.1246 18.4613C25.1246 20.4495 24.7825 22.2559 24.0984 23.8807C23.4357 25.5054 22.4843 26.895 21.2445 28.0494C20.0258 29.1824 18.5615 30.0697 16.8512 30.711C15.141 31.331 13.2383 31.6409 11.1433 31.6409H0.657227ZM5.53146 28.1135H11.2715C13.281 28.1135 15.002 27.7074 16.4344 26.895C17.8881 26.0612 18.9997 24.9389 19.7693 23.5279C20.5389 22.1169 20.9238 20.5136 20.9238 18.7178C20.9238 17.4992 20.6565 16.441 20.1221 15.5432C19.5876 14.6453 18.786 13.9505 17.717 13.4588C16.6695 12.9671 15.3547 12.7212 13.7727 12.7212H8.60991L5.53146 28.1135Z" fill="black"/>
<path id="Vector_7" d="M101.472 44.3711C101.056 44.3711 100.652 44.3296 100.259 44.2464C99.8727 44.1633 99.5179 44.0537 99.1927 43.9176C98.8754 43.774 98.6107 43.6153 98.3994 43.4414L99.0225 42.2849C99.2417 42.4663 99.4912 42.6212 99.771 42.7498C100.051 42.8783 100.346 42.9766 100.655 43.0446C100.973 43.1126 101.291 43.1466 101.608 43.1466C101.994 43.1466 102.33 43.1012 102.617 43.0105C102.904 42.9198 103.124 42.7914 103.274 42.6251C103.433 42.4588 103.512 42.2584 103.512 42.0241C103.512 41.8125 103.441 41.6424 103.297 41.5139C103.153 41.3778 102.961 41.2682 102.719 41.1851C102.485 41.0943 102.224 41.0112 101.937 40.9356C101.657 40.8525 101.373 40.7618 101.086 40.6635C100.799 40.5577 100.538 40.4292 100.304 40.278C100.07 40.1193 99.8771 39.9189 99.7256 39.6771C99.5821 39.4352 99.51 39.1328 99.51 38.77C99.51 38.2485 99.6535 37.7987 99.9412 37.4207C100.236 37.0353 100.64 36.7367 101.154 36.525C101.676 36.3134 102.281 36.2075 102.969 36.2075C103.482 36.2075 103.97 36.2643 104.431 36.3776C104.892 36.491 105.289 36.6573 105.622 36.8765L105.043 38.0444C104.748 37.8479 104.416 37.6966 104.045 37.5908C103.675 37.485 103.29 37.4321 102.889 37.4321C102.496 37.4321 102.156 37.4812 101.869 37.5795C101.581 37.6777 101.362 37.8138 101.211 37.9877C101.06 38.1615 100.98 38.3656 100.973 38.5999C100.973 38.8191 101.045 38.9968 101.188 39.1328C101.332 39.2613 101.521 39.3709 101.755 39.4617C101.989 39.5524 102.25 39.6393 102.537 39.7224C102.825 39.798 103.109 39.885 103.388 39.9832C103.675 40.0815 103.94 40.2062 104.182 40.3574C104.423 40.5086 104.616 40.7013 104.76 40.9356C104.903 41.1624 104.976 41.4497 104.976 41.7973C104.976 42.3189 104.828 42.7725 104.533 43.1579C104.246 43.5435 103.838 43.842 103.308 44.0537C102.787 44.2653 102.175 44.3711 101.472 44.3711Z" fill="black"/>
<path id="Vector_8" d="M92.4244 39.6202H96.3813L96.1433 40.8334H92.1864L92.4244 39.6202ZM91.8575 43.0217H96.3474L96.0979 44.2576H90.1455L91.7328 36.3208H97.5265L97.277 37.5566H92.9457L91.8575 43.0217Z" fill="black"/>
<path id="Vector_9" d="M85.3911 44.2576L86.9784 36.3208H88.4524L86.8652 44.2576H85.3911Z" fill="black"/>
<path id="Vector_10" d="M79.5237 44.3711C78.7298 44.3711 78.0461 44.2275 77.4713 43.9403C76.8973 43.6531 76.4509 43.2562 76.1336 42.7498C75.8235 42.2358 75.6685 41.6462 75.6685 40.981C75.6685 40.3082 75.7817 39.6846 76.0088 39.1102C76.2432 38.5281 76.5757 38.0217 77.0062 37.5908C77.4374 37.1599 77.9552 36.8236 78.5596 36.5817C79.1718 36.3323 79.8526 36.2075 80.6011 36.2075C81.3266 36.2075 81.9576 36.321 82.4942 36.5477C83.0307 36.7745 83.462 37.0957 83.7872 37.5114L82.7213 38.3959C82.4567 38.0783 82.143 37.8516 81.7802 37.7155C81.4247 37.5719 81.0093 37.5001 80.5326 37.5001C80.0185 37.5001 79.554 37.587 79.1379 37.7609C78.7225 37.9272 78.367 38.1653 78.0721 38.4752C77.7778 38.7851 77.5507 39.148 77.392 39.5637C77.2334 39.9719 77.154 40.4141 77.154 40.8903C77.154 41.3211 77.2485 41.7029 77.4374 42.0355C77.6264 42.368 77.9098 42.6251 78.2877 42.8064C78.6656 42.9879 79.1343 43.0786 79.6939 43.0786C80.1093 43.0786 80.4987 43.0105 80.8615 42.8745C81.2322 42.7309 81.5798 42.5192 81.905 42.2395L82.4826 43.3961C82.0896 43.7059 81.6324 43.9478 81.111 44.1217C80.5968 44.288 80.0682 44.3711 79.5237 44.3711ZM81.1449 43.1692L81.7348 40.1986H83.1295L82.4826 43.3961L81.1449 43.1692Z" fill="black"/>
<path id="Vector_11" d="M68.7886 44.3711C67.9873 44.3711 67.3033 44.2275 66.7363 43.9403C66.1694 43.6531 65.7348 43.2562 65.4324 42.7498C65.1376 42.2358 64.9902 41.6462 64.9902 40.981C64.9902 40.3082 65.1036 39.6846 65.3303 39.1102C65.5571 38.5281 65.8859 38.0217 66.3168 37.5908C66.7477 37.1599 67.2617 36.8236 67.8588 36.5817C68.456 36.3323 69.1211 36.2075 69.8543 36.2075C70.648 36.2075 71.3283 36.3512 71.8953 36.6384C72.4622 36.9256 72.897 37.3262 73.1992 37.8403C73.5014 38.3467 73.6528 38.9325 73.6528 39.5977C73.6528 40.2704 73.5353 40.8978 73.3009 41.4799C73.0744 42.0543 72.7456 42.557 72.3151 42.9879C71.8839 43.4187 71.3699 43.7589 70.7727 44.0083C70.1832 44.2502 69.5217 44.3711 68.7886 44.3711ZM68.9132 43.0786C69.4121 43.0786 69.8619 42.9916 70.2625 42.8178C70.6632 42.6364 71.0033 42.3907 71.2829 42.0808C71.5702 41.7634 71.7894 41.4005 71.9406 40.9923C72.0918 40.5766 72.1672 40.1419 72.1672 39.6884C72.1672 39.2576 72.0729 38.8759 71.8839 38.5433C71.6949 38.2107 71.419 37.9536 71.0562 37.7722C70.6934 37.5908 70.2474 37.5001 69.7183 37.5001C69.2269 37.5001 68.7772 37.5908 68.3691 37.7722C67.9684 37.9461 67.6245 38.1918 67.3372 38.5092C67.0576 38.8192 66.8422 39.182 66.6909 39.5977C66.5473 40.0059 66.4755 40.4367 66.4755 40.8903C66.4755 41.3211 66.5662 41.7029 66.7477 42.0355C66.9366 42.368 67.2125 42.6251 67.5754 42.8064C67.9382 42.9879 68.3841 43.0786 68.9132 43.0786Z" fill="black"/>
<path id="Vector_12" d="M57.043 44.2576L58.6303 36.3208H60.1043L58.7664 43.0104H62.9162L62.6667 44.2576H57.043Z" fill="black"/>
<path id="Vector_13" d="M50.3331 44.3711C49.5318 44.3711 48.8477 44.2275 48.2808 43.9403C47.7139 43.6531 47.2793 43.2562 46.9769 42.7498C46.6821 42.2358 46.5347 41.6462 46.5347 40.981C46.5347 40.3082 46.6481 39.6846 46.8748 39.1102C47.1016 38.5281 47.4304 38.0217 47.8613 37.5908C48.2921 37.1599 48.8062 36.8236 49.4033 36.5817C50.0005 36.3323 50.6656 36.2075 51.3988 36.2075C52.1925 36.2075 52.8728 36.3512 53.4397 36.6384C54.0066 36.9256 54.4413 37.3262 54.7436 37.8403C55.046 38.3467 55.1972 38.9325 55.1972 39.5977C55.1972 40.2704 55.08 40.8978 54.8457 41.4799C54.6189 42.0543 54.2901 42.557 53.8592 42.9879C53.4284 43.4187 52.9144 43.7589 52.3172 44.0083C51.7276 44.2502 51.0663 44.3711 50.3331 44.3711ZM50.4577 43.0786C50.9566 43.0786 51.4064 42.9916 51.807 42.8178C52.2076 42.6364 52.5478 42.3907 52.8275 42.0808C53.1147 41.7634 53.3339 41.4005 53.4851 40.9923C53.6362 40.5766 53.7119 40.1419 53.7119 39.6884C53.7119 39.2576 53.6173 38.8759 53.4284 38.5433C53.2394 38.2107 52.9635 37.9536 52.6007 37.7722C52.2378 37.5908 51.7919 37.5001 51.2628 37.5001C50.7714 37.5001 50.3217 37.5908 49.9135 37.7722C49.5129 37.9461 49.169 38.1918 48.8817 38.5092C48.6021 38.8192 48.3866 39.182 48.2354 39.5977C48.0918 40.0059 48.02 40.4367 48.02 40.8903C48.02 41.3211 48.1107 41.7029 48.2921 42.0355C48.4811 42.368 48.757 42.6251 49.1199 42.8064C49.4827 42.9879 49.9286 43.0786 50.4577 43.0786Z" fill="black"/>
<path id="Vector_14" d="M36.0518 44.2576L37.6391 36.3208H38.8523L42.4692 42.4775L42.0043 42.4208L43.2176 36.3208H44.6802L43.0928 44.2576H41.8796L38.2741 38.1009L38.7389 38.1576L37.5144 44.2576H36.0518Z" fill="black"/>
<path id="Vector_15" d="M32.9041 36.3208H34.3667L32.7793 44.2576H31.3167L32.9041 36.3208ZM27.2122 44.2576H25.7383L27.3256 36.3208H28.7996L27.2122 44.2576ZM32.1104 40.8561H27.7905L28.0286 39.5976H32.3712L32.1104 40.8561Z" fill="black"/>
<path id="Vector_16" d="M20.3916 44.3711C19.5828 44.3711 18.8912 44.2275 18.3167 43.9403C17.7422 43.6531 17.3001 43.2562 16.9902 42.7498C16.6878 42.2358 16.5366 41.6462 16.5366 40.981C16.5366 40.3082 16.65 39.6846 16.8768 39.1102C17.1111 38.5281 17.4437 38.0217 17.8746 37.5908C18.3054 37.1599 18.8194 36.8236 19.4165 36.5817C20.0137 36.3323 20.6827 36.2075 21.4234 36.2075C22.1113 36.2075 22.716 36.321 23.2376 36.5477C23.7591 36.7745 24.1597 37.1033 24.4395 37.5342L23.3737 38.4298C23.1544 38.1275 22.8748 37.897 22.5346 37.7382C22.1944 37.5795 21.7901 37.5001 21.3214 37.5001C20.8149 37.5001 20.3577 37.587 19.9495 37.7609C19.5413 37.9348 19.1936 38.1805 18.9063 38.4979C18.6191 38.8078 18.3999 39.1706 18.2487 39.5863C18.0976 39.9945 18.022 40.4292 18.022 40.8903C18.022 41.3211 18.1165 41.7029 18.3054 42.0355C18.4944 42.368 18.7741 42.6251 19.1445 42.8064C19.5148 42.9879 19.9684 43.0786 20.5051 43.0786C20.951 43.0786 21.3629 43.003 21.7409 42.8518C22.1264 42.7006 22.4666 42.4701 22.7613 42.1601L23.6231 43.0899C23.2376 43.5283 22.7652 43.8533 22.2058 44.065C21.654 44.2691 21.0493 44.3711 20.3916 44.3711Z" fill="black"/>
<path id="Vector_17" d="M9.91571 39.6202H13.8728L13.6347 40.8334H9.67758L9.91571 39.6202ZM9.34881 43.0217H13.8388L13.5893 44.2576H7.63672L9.22405 36.3208H15.0179L14.7685 37.5566H10.4372L9.34881 43.0217Z" fill="black"/>
<path id="Vector_18" d="M1.29257 44.2576L2.63049 37.568H0L0.249443 36.3208H6.97307L6.72362 37.568H4.09313L2.76655 44.2576H1.29257Z" fill="black"/>
<path id="Vector_19" d="M72.2236 26.354H99.2582L98.0323 27.58H72.2236V26.354Z" fill="url(#paint0_linear_1_5179)" stroke="url(#paint1_linear_1_5179)" stroke-width="0.216346"/>
<path id="Vector_20" d="M98.1851 19.8638H125.22L123.994 21.0897H98.1851V19.8638Z" fill="url(#paint2_linear_1_5179)" stroke="url(#paint3_linear_1_5179)" stroke-width="0.216346"/>
<path id="Vector_21" d="M136.298 24.4079L103.125 7.49463L112.775 21.4795H116.153L111.449 14.7859L130.93 24.7067L116.756 33.9701L118.385 26.6191H115.61L112.594 39.9466L136.298 24.4079Z" fill="url(#paint4_linear_1_5179)"/>
<path id="Vector_22" d="M144.952 23.4363L110.336 6.05322L121.499 23.386L118.171 40.6686L144.952 23.4363Z" stroke="url(#paint5_linear_1_5179)" stroke-width="4.32692"/>
<path id="Vector_23" d="M60.9375 23.0005H119.639L117.118 25.8851H60.9375V23.0005Z" stroke="url(#paint6_linear_1_5179)" stroke-width="0.721154"/>
<path id="Vector_24" d="M90.2881 16.2935H120.773L119.467 17.4473H90.2881V16.2935Z" fill="url(#paint7_linear_1_5179)" stroke="url(#paint8_linear_1_5179)" stroke-width="0.288462"/>
<path id="Vector_25" d="M67.9688 9.83838H116.331L114.18 11.6413H67.9688V9.83838Z" fill="url(#paint9_linear_1_5179)" stroke="url(#paint10_linear_1_5179)" stroke-width="0.360577"/>
<path id="Vector_26" d="M65.8052 33.6372H115.599L113.385 35.4401H65.8052V33.6372Z" stroke="url(#paint11_linear_1_5179)" stroke-width="0.360577"/>
<path id="Vector_27" d="M94.5791 28.5181H117.154L116.304 29.0229H94.5791V28.5181Z" fill="url(#paint12_linear_1_5179)" stroke="url(#paint13_linear_1_5179)" stroke-width="0.216346"/>
</g>
<defs>
<linearGradient id="paint0_linear_1_5179" x1="81.6304" y1="26.9756" x2="96.0917" y2="20.0557" gradientUnits="userSpaceOnUse">
<stop stop-color="#872B96" stop-opacity="0"/>
<stop offset="1" stop-color="#E79AF4"/>
</linearGradient>
<linearGradient id="paint1_linear_1_5179" x1="75.6203" y1="26.9756" x2="94.9717" y2="17.7155" gradientUnits="userSpaceOnUse">
<stop stop-color="#872B96" stop-opacity="0"/>
<stop offset="1" stop-color="#E79AF4"/>
</linearGradient>
<linearGradient id="paint2_linear_1_5179" x1="119.712" y1="20.4854" x2="125.365" y2="20.4854" gradientUnits="userSpaceOnUse">
<stop stop-color="#872B96" stop-opacity="0"/>
<stop offset="1" stop-color="#E79AF4"/>
</linearGradient>
<linearGradient id="paint3_linear_1_5179" x1="101.582" y1="20.4854" x2="120.933" y2="11.2253" gradientUnits="userSpaceOnUse">
<stop stop-color="#872B96" stop-opacity="0"/>
<stop offset="1" stop-color="#E79AF4"/>
</linearGradient>
<linearGradient id="paint4_linear_1_5179" x1="84.1103" y1="23.9161" x2="136.157" y2="23.7831" gradientUnits="userSpaceOnUse">
<stop stop-color="#872B96" stop-opacity="0"/>
<stop offset="1" stop-color="#E79AF4"/>
</linearGradient>
<linearGradient id="paint5_linear_1_5179" x1="80.7691" y1="23.5695" x2="144.805" y2="23.5344" gradientUnits="userSpaceOnUse">
<stop stop-color="#3F2B96" stop-opacity="0"/>
<stop offset="1" stop-color="#8DA3DD"/>
</linearGradient>
<linearGradient id="paint6_linear_1_5179" x1="94.443" y1="24.4645" x2="116.367" y2="15.3227" gradientUnits="userSpaceOnUse">
<stop stop-color="#3F2B96" stop-opacity="0"/>
<stop offset="1" stop-color="#A8C0FF"/>
</linearGradient>
<linearGradient id="paint7_linear_1_5179" x1="100.911" y1="16.879" x2="116.462" y2="8.45826" gradientUnits="userSpaceOnUse">
<stop stop-color="#872B96" stop-opacity="0"/>
<stop offset="1" stop-color="#E79AF4"/>
</linearGradient>
<linearGradient id="paint8_linear_1_5179" x1="106.261" y1="16.879" x2="117.675" y2="10.6983" gradientUnits="userSpaceOnUse">
<stop stop-color="#872B96" stop-opacity="0"/>
<stop offset="1" stop-color="#E79AF4"/>
</linearGradient>
<linearGradient id="paint9_linear_1_5179" x1="106.866" y1="16.1485" x2="112.466" y2="7.92501" gradientUnits="userSpaceOnUse">
<stop stop-color="#3F2B96" stop-opacity="0"/>
<stop offset="1" stop-color="#A8C0FF"/>
</linearGradient>
<linearGradient id="paint10_linear_1_5179" x1="92.3077" y1="10.7529" x2="110.643" y2="0.285519" gradientUnits="userSpaceOnUse">
<stop stop-color="#3F2B96" stop-opacity="0"/>
<stop offset="1" stop-color="#A8C0FF"/>
</linearGradient>
<linearGradient id="paint11_linear_1_5179" x1="90.8653" y1="34.5517" x2="109.467" y2="23.6199" gradientUnits="userSpaceOnUse">
<stop stop-color="#3F2B96" stop-opacity="0"/>
<stop offset="1" stop-color="#A8C0FF"/>
</linearGradient>
<linearGradient id="paint12_linear_1_5179" x1="102.548" y1="28.7748" x2="115.625" y2="28.7748" gradientUnits="userSpaceOnUse">
<stop stop-color="#3F2B96" stop-opacity="0"/>
<stop offset="1" stop-color="#A8C0FF"/>
</linearGradient>
<linearGradient id="paint13_linear_1_5179" x1="98.6378" y1="28.7748" x2="116.587" y2="28.7748" gradientUnits="userSpaceOnUse">
<stop stop-color="#3F2B96" stop-opacity="0"/>
<stop offset="1" stop-color="#A8C0FF"/>
</linearGradient>
<clipPath id="clip0_1_5179">
<rect width="150" height="45.4327" fill="white" transform="translate(0 0.283691)"/>
</clipPath>
</defs>
</svg>
