<svg width="32" height="32" viewBox="0 0 32 32" fill="none" xmlns="http://www.w3.org/2000/svg">
<mask id="mask0_257_10683" style="mask-type:alpha" maskUnits="userSpaceOnUse" x="0" y="0" width="32" height="32">
<rect width="32" height="32" fill="#D9D9D9"/>
</mask>
<g mask="url(#mask0_257_10683)">
<path d="M25.8716 27.3332C23.4578 27.3332 20.9912 26.7407 18.4719 25.5558C15.9526 24.3709 13.6122 22.6978 11.4509 20.5365C9.29824 18.3754 7.62946 16.0373 6.44457 13.5222C5.25968 11.0071 4.66724 8.54261 4.66724 6.12884C4.66724 5.71973 4.80657 5.37373 5.08524 5.09084C5.3639 4.80795 5.70779 4.6665 6.1169 4.6665H10.1049C10.4473 4.6665 10.7412 4.77862 10.9866 5.00284C11.2317 5.22706 11.3985 5.51273 11.4869 5.85984L12.2732 9.55717C12.3206 9.89739 12.3089 10.2005 12.2382 10.4665C12.1676 10.7325 12.0376 10.9544 11.8482 11.1322L8.71924 14.1792C9.28124 15.1623 9.88879 16.0787 10.5419 16.9285C11.1952 17.7783 11.902 18.5807 12.6622 19.3358C13.4598 20.1483 14.3082 20.8938 15.2076 21.5725C16.1067 22.2512 17.0716 22.8725 18.1022 23.4365L21.1169 20.3555C21.3345 20.1202 21.5833 19.9597 21.8636 19.8742C22.1436 19.7888 22.4388 19.7684 22.7492 19.8128L26.1406 20.5392C26.4921 20.6223 26.7789 20.7995 27.0009 21.0708C27.2229 21.3419 27.3339 21.6511 27.3339 21.9982V25.8835C27.3339 26.2926 27.1925 26.6365 26.9096 26.9152C26.6267 27.1938 26.2807 27.3332 25.8716 27.3332Z" fill="#1C1B1F"/>
</g>
</svg>
