<svg width="32" height="32" viewBox="0 0 32 32" fill="none" xmlns="http://www.w3.org/2000/svg">
<mask id="mask0_257_10689" style="mask-type:alpha" maskUnits="userSpaceOnUse" x="0" y="0" width="32" height="32">
<rect width="32" height="32" fill="#D9D9D9"/>
</mask>
<g mask="url(#mask0_257_10689)">
<path d="M15.9967 28.0335C15.7723 28.0335 15.5489 27.9968 15.3267 27.9235C15.1045 27.8504 14.9047 27.7317 14.7274 27.5675C13.7805 26.6997 12.7901 25.7231 11.7564 24.6375C10.7228 23.5517 9.77515 22.4048 8.91337 21.1968C8.05159 19.9888 7.33992 18.7444 6.77837 17.4635C6.21681 16.1826 5.93604 14.9162 5.93604 13.6642C5.93604 10.5873 6.93126 8.09627 8.9217 6.19116C10.9124 4.28605 13.2718 3.3335 16 3.3335C18.7283 3.3335 21.0877 4.28605 23.0784 6.19116C25.0688 8.09627 26.064 10.5873 26.064 13.6642C26.064 14.9162 25.7833 16.1818 25.2217 17.4612C24.6601 18.7407 23.9506 19.9838 23.093 21.1905C22.2355 22.3969 21.2899 23.5424 20.2564 24.6268C19.2228 25.7111 18.2325 26.6871 17.2854 27.5548C17.1114 27.7188 16.9101 27.8396 16.6817 27.9172C16.4533 27.9947 16.2249 28.0335 15.9967 28.0335ZM16.005 15.6582C16.6246 15.6582 17.1533 15.4376 17.591 14.9965C18.029 14.5554 18.248 14.0251 18.248 13.4055C18.248 12.7859 18.0274 12.2573 17.586 11.8195C17.1449 11.3815 16.6146 11.1625 15.995 11.1625C15.3755 11.1625 14.8468 11.3831 14.409 11.8242C13.971 12.2655 13.752 12.7959 13.752 13.4155C13.752 14.0348 13.9727 14.5635 14.414 15.0015C14.8551 15.4393 15.3855 15.6582 16.005 15.6582Z" fill="#1C1B1F"/>
</g>
</svg>
