<svg width="26" height="20" viewBox="0 0 26 20" fill="none" xmlns="http://www.w3.org/2000/svg">
<path d="M2.41843 20C1.84399 20 1.35276 19.796 0.944764 19.388C0.536764 18.98 0.332764 18.4888 0.332764 17.9143V2.08567C0.332764 1.51122 0.536764 1.02 0.944764 0.612C1.35276 0.204 1.84399 0 2.41843 0H23.5804C24.1549 0 24.6461 0.204 25.0541 0.612C25.4621 1.02 25.6661 1.51122 25.6661 2.08567V17.9143C25.6661 18.4888 25.4621 18.98 25.0541 19.388C24.6461 19.796 24.1549 20 23.5804 20H2.41843ZM12.9994 10.1847C13.1048 10.1847 13.2031 10.168 13.2944 10.1347C13.3855 10.1013 13.4778 10.0601 13.5711 10.011L23.6081 3.45467C23.7272 3.37889 23.8101 3.28045 23.8568 3.15933C23.9034 3.03822 23.914 2.91133 23.8884 2.77867C23.8713 2.54622 23.7502 2.368 23.5251 2.244C23.3 2.12 23.0761 2.12956 22.8534 2.27267L12.9994 8.63067L3.1591 2.27267C2.93643 2.12956 2.71243 2.11456 2.4871 2.22767C2.26176 2.34078 2.13621 2.51278 2.11043 2.74367C2.08487 2.881 2.09776 3.016 2.1491 3.14867C2.20021 3.28133 2.28076 3.38333 2.39076 3.45467L12.4361 10.011C12.5239 10.0601 12.6133 10.1013 12.7044 10.1347C12.7958 10.168 12.8941 10.1847 12.9994 10.1847Z" fill="#1C1B1F"/>
</svg>
